<?xml version="1.0" encoding="utf-8"?><!-- Uploaded to: SVG Repo, www.svgrepo.com, Generator: SVG Repo Mixer Tools -->
<svg fill="#000000" width="800px" height="800px" viewBox="0 0 24 24" id="chemistry-5" data-name="Flat Line" xmlns="http://www.w3.org/2000/svg" class="icon flat-line"><path id="secondary" d="M19.88,15.53,17,10.18V4H13v6.18l-2.88,5.35A1,1,0,0,0,11,17h8A1,1,0,0,0,19.88,15.53Z" style="fill: rgb(44, 169, 188); stroke-width: 2;"></path><path id="primary" d="M21,21H6a1,1,0,0,1-1-1V3" style="fill: none; stroke: rgb(0, 0, 0); stroke-linecap: round; stroke-linejoin: round; stroke-width: 2;"></path><path id="primary-2" data-name="primary" d="M3,7H13m6.88,8.53L17,10.18V4H13v6.18l-2.88,5.35A1,1,0,0,0,11,17h8A1,1,0,0,0,19.88,15.53ZM12,4h6" style="fill: none; stroke: rgb(0, 0, 0); stroke-linecap: round; stroke-linejoin: round; stroke-width: 2;"></path></svg>